<svg width="24" height="25" viewBox="0 0 24 25" fill="none" xmlns="http://www.w3.org/2000/svg">
<g id="ic_setting_fill">
<path id="Vector" d="M10.5037 0.5L9.00748 4.0611C8.70823 4.15087 8.4389 4.3005 8.16958 4.45012L4.60848 2.95387L2.45387 5.10848L3.95012 8.66958C3.8005 8.96883 3.6808 9.20823 3.5611 9.50748L0 11.0037V13.9963L3.5611 15.4925C3.6808 15.7918 3.8005 16.0312 3.95012 16.3304L2.45387 19.8915L4.60848 22.0461L8.16958 20.5499C8.4389 20.6696 8.70823 20.8192 9.00748 20.9389L10.5037 24.5H13.4963L14.9925 20.9389C15.2618 20.8192 15.5611 20.6995 15.8304 20.5499L19.3915 22.0461L21.5461 19.8915L20.0499 16.3304C20.1696 16.0611 20.3192 15.7618 20.4389 15.4925L24 13.9963V11.0037L20.4389 9.50748C20.3491 9.23815 20.1995 8.9389 20.0499 8.66958L21.5461 5.10848L19.3915 2.95387L15.8304 4.45012C15.5611 4.33042 15.2618 4.1808 14.9925 4.0611L13.4963 0.5L10.5037 0.5ZM12 7.9813C14.4838 7.9813 16.4888 9.98628 16.4888 12.4701C16.4888 14.9539 14.4838 16.9589 12 16.9589C9.51621 16.9589 7.51122 14.9539 7.51122 12.4701C7.51122 9.98628 9.51621 7.9813 12 7.9813Z" fill="#BEBFC0"/>
</g>
</svg>
